<mxfile host="app.diagrams.net" modified="2021-06-07T18:08:05.135Z" agent="5.0 (Windows NT 10.0; Win64; x64) AppleWebKit/537.36 (KHTML, like Gecko) Chrome/91.0.4472.77 Safari/537.36" etag="oKlgVxlulukYXxk7Ftg3" version="14.7.6" type="github">
  <diagram id="R2lEEEUBdFMjLlhIrx00" name="Page-1">
    <mxGraphModel dx="1221" dy="1826" grid="1" gridSize="10" guides="1" tooltips="1" connect="1" arrows="1" fold="1" page="1" pageScale="1" pageWidth="850" pageHeight="1100" math="0" shadow="0" extFonts="Permanent Marker^https://fonts.googleapis.com/css?family=Permanent+Marker">
      <root>
        <mxCell id="0" />
        <mxCell id="1" parent="0" />
        <mxCell id="yR7JWTEhL-IKzRIPbE6F-1" value="EMPLOYEE" style="shape=table;startSize=30;container=1;collapsible=1;childLayout=tableLayout;fixedRows=1;rowLines=0;fontStyle=1;align=center;resizeLast=1;" vertex="1" parent="1">
          <mxGeometry x="82" y="160" width="180" height="220" as="geometry" />
        </mxCell>
        <mxCell id="yR7JWTEhL-IKzRIPbE6F-2" value="" style="shape=partialRectangle;collapsible=0;dropTarget=0;pointerEvents=0;fillColor=none;top=0;left=0;bottom=1;right=0;points=[[0,0.5],[1,0.5]];portConstraint=eastwest;" vertex="1" parent="yR7JWTEhL-IKzRIPbE6F-1">
          <mxGeometry y="30" width="180" height="30" as="geometry" />
        </mxCell>
        <mxCell id="yR7JWTEhL-IKzRIPbE6F-3" value="FK" style="shape=partialRectangle;connectable=0;fillColor=none;top=0;left=0;bottom=0;right=0;fontStyle=1;overflow=hidden;" vertex="1" parent="yR7JWTEhL-IKzRIPbE6F-2">
          <mxGeometry width="30" height="30" as="geometry" />
        </mxCell>
        <mxCell id="yR7JWTEhL-IKzRIPbE6F-4" value="Driving License" style="shape=partialRectangle;connectable=0;fillColor=none;top=0;left=0;bottom=0;right=0;align=center;spacingLeft=6;fontStyle=5;overflow=hidden;" vertex="1" parent="yR7JWTEhL-IKzRIPbE6F-2">
          <mxGeometry x="30" width="150" height="30" as="geometry" />
        </mxCell>
        <mxCell id="yR7JWTEhL-IKzRIPbE6F-5" value="" style="shape=partialRectangle;collapsible=0;dropTarget=0;pointerEvents=0;fillColor=none;top=0;left=0;bottom=0;right=0;points=[[0,0.5],[1,0.5]];portConstraint=eastwest;" vertex="1" parent="yR7JWTEhL-IKzRIPbE6F-1">
          <mxGeometry y="60" width="180" height="30" as="geometry" />
        </mxCell>
        <mxCell id="yR7JWTEhL-IKzRIPbE6F-6" value="FK" style="shape=partialRectangle;connectable=0;fillColor=none;top=0;left=0;bottom=0;right=0;editable=1;overflow=hidden;fontStyle=1" vertex="1" parent="yR7JWTEhL-IKzRIPbE6F-5">
          <mxGeometry width="30" height="30" as="geometry" />
        </mxCell>
        <mxCell id="yR7JWTEhL-IKzRIPbE6F-7" value="Working Location" style="shape=partialRectangle;connectable=0;fillColor=none;top=0;left=0;bottom=0;right=0;align=center;spacingLeft=6;overflow=hidden;fontStyle=1" vertex="1" parent="yR7JWTEhL-IKzRIPbE6F-5">
          <mxGeometry x="30" width="150" height="30" as="geometry" />
        </mxCell>
        <mxCell id="yR7JWTEhL-IKzRIPbE6F-8" value="" style="shape=partialRectangle;collapsible=0;dropTarget=0;pointerEvents=0;fillColor=none;top=0;left=0;bottom=0;right=0;points=[[0,0.5],[1,0.5]];portConstraint=eastwest;" vertex="1" parent="yR7JWTEhL-IKzRIPbE6F-1">
          <mxGeometry y="90" width="180" height="30" as="geometry" />
        </mxCell>
        <mxCell id="yR7JWTEhL-IKzRIPbE6F-9" value="FK" style="shape=partialRectangle;connectable=0;fillColor=none;top=0;left=0;bottom=0;right=0;editable=1;overflow=hidden;fontStyle=1" vertex="1" parent="yR7JWTEhL-IKzRIPbE6F-8">
          <mxGeometry width="30" height="30" as="geometry" />
        </mxCell>
        <mxCell id="yR7JWTEhL-IKzRIPbE6F-10" value="Employee Type" style="shape=partialRectangle;connectable=0;fillColor=none;top=0;left=0;bottom=0;right=0;align=center;spacingLeft=6;overflow=hidden;fontStyle=1" vertex="1" parent="yR7JWTEhL-IKzRIPbE6F-8">
          <mxGeometry x="30" width="150" height="30" as="geometry" />
        </mxCell>
        <mxCell id="yR7JWTEhL-IKzRIPbE6F-11" value="" style="shape=partialRectangle;collapsible=0;dropTarget=0;pointerEvents=0;fillColor=none;top=0;left=0;bottom=0;right=0;points=[[0,0.5],[1,0.5]];portConstraint=eastwest;" vertex="1" parent="yR7JWTEhL-IKzRIPbE6F-1">
          <mxGeometry y="120" width="180" height="30" as="geometry" />
        </mxCell>
        <mxCell id="yR7JWTEhL-IKzRIPbE6F-12" value="" style="shape=partialRectangle;connectable=0;fillColor=none;top=0;left=0;bottom=0;right=0;editable=1;overflow=hidden;" vertex="1" parent="yR7JWTEhL-IKzRIPbE6F-11">
          <mxGeometry width="30" height="30" as="geometry" />
        </mxCell>
        <mxCell id="yR7JWTEhL-IKzRIPbE6F-13" value="Is President" style="shape=partialRectangle;connectable=0;fillColor=none;top=0;left=0;bottom=0;right=0;align=center;spacingLeft=6;overflow=hidden;fontStyle=1" vertex="1" parent="yR7JWTEhL-IKzRIPbE6F-11">
          <mxGeometry x="30" width="150" height="30" as="geometry" />
        </mxCell>
        <mxCell id="yR7JWTEhL-IKzRIPbE6F-305" value="" style="shape=partialRectangle;collapsible=0;dropTarget=0;pointerEvents=0;fillColor=none;top=0;left=0;bottom=0;right=0;points=[[0,0.5],[1,0.5]];portConstraint=eastwest;" vertex="1" parent="yR7JWTEhL-IKzRIPbE6F-1">
          <mxGeometry y="150" width="180" height="30" as="geometry" />
        </mxCell>
        <mxCell id="yR7JWTEhL-IKzRIPbE6F-306" value="" style="shape=partialRectangle;connectable=0;fillColor=none;top=0;left=0;bottom=0;right=0;editable=1;overflow=hidden;" vertex="1" parent="yR7JWTEhL-IKzRIPbE6F-305">
          <mxGeometry width="30" height="30" as="geometry" />
        </mxCell>
        <mxCell id="yR7JWTEhL-IKzRIPbE6F-307" value="Is Vice President" style="shape=partialRectangle;connectable=0;fillColor=none;top=0;left=0;bottom=0;right=0;align=center;spacingLeft=6;overflow=hidden;fontStyle=1" vertex="1" parent="yR7JWTEhL-IKzRIPbE6F-305">
          <mxGeometry x="30" width="150" height="30" as="geometry" />
        </mxCell>
        <mxCell id="yR7JWTEhL-IKzRIPbE6F-17" value="ADDRESS" style="shape=table;startSize=30;container=1;collapsible=1;childLayout=tableLayout;fixedRows=1;rowLines=0;fontStyle=1;align=center;resizeLast=1;" vertex="1" parent="1">
          <mxGeometry x="82" y="500" width="190" height="220" as="geometry" />
        </mxCell>
        <mxCell id="yR7JWTEhL-IKzRIPbE6F-18" value="" style="shape=partialRectangle;collapsible=0;dropTarget=0;pointerEvents=0;fillColor=none;top=0;left=0;bottom=1;right=0;points=[[0,0.5],[1,0.5]];portConstraint=eastwest;" vertex="1" parent="yR7JWTEhL-IKzRIPbE6F-17">
          <mxGeometry y="30" width="190" height="30" as="geometry" />
        </mxCell>
        <mxCell id="yR7JWTEhL-IKzRIPbE6F-19" value="" style="shape=partialRectangle;connectable=0;fillColor=none;top=0;left=0;bottom=0;right=0;fontStyle=1;overflow=hidden;" vertex="1" parent="yR7JWTEhL-IKzRIPbE6F-18">
          <mxGeometry width="30" height="30" as="geometry" />
        </mxCell>
        <mxCell id="yR7JWTEhL-IKzRIPbE6F-20" value="Street Number" style="shape=partialRectangle;connectable=0;fillColor=none;top=0;left=0;bottom=0;right=0;align=center;spacingLeft=6;fontStyle=5;overflow=hidden;" vertex="1" parent="yR7JWTEhL-IKzRIPbE6F-18">
          <mxGeometry x="30" width="160" height="30" as="geometry" />
        </mxCell>
        <mxCell id="yR7JWTEhL-IKzRIPbE6F-21" value="" style="shape=partialRectangle;collapsible=0;dropTarget=0;pointerEvents=0;fillColor=none;top=0;left=0;bottom=0;right=0;points=[[0,0.5],[1,0.5]];portConstraint=eastwest;" vertex="1" parent="yR7JWTEhL-IKzRIPbE6F-17">
          <mxGeometry y="60" width="190" height="30" as="geometry" />
        </mxCell>
        <mxCell id="yR7JWTEhL-IKzRIPbE6F-22" value="" style="shape=partialRectangle;connectable=0;fillColor=none;top=0;left=0;bottom=0;right=0;editable=1;overflow=hidden;" vertex="1" parent="yR7JWTEhL-IKzRIPbE6F-21">
          <mxGeometry width="30" height="30" as="geometry" />
        </mxCell>
        <mxCell id="yR7JWTEhL-IKzRIPbE6F-23" value="Street Name" style="shape=partialRectangle;connectable=0;fillColor=none;top=0;left=0;bottom=0;right=0;align=center;spacingLeft=6;overflow=hidden;fontStyle=1" vertex="1" parent="yR7JWTEhL-IKzRIPbE6F-21">
          <mxGeometry x="30" width="160" height="30" as="geometry" />
        </mxCell>
        <mxCell id="yR7JWTEhL-IKzRIPbE6F-24" value="" style="shape=partialRectangle;collapsible=0;dropTarget=0;pointerEvents=0;fillColor=none;top=0;left=0;bottom=0;right=0;points=[[0,0.5],[1,0.5]];portConstraint=eastwest;" vertex="1" parent="yR7JWTEhL-IKzRIPbE6F-17">
          <mxGeometry y="90" width="190" height="30" as="geometry" />
        </mxCell>
        <mxCell id="yR7JWTEhL-IKzRIPbE6F-25" value="" style="shape=partialRectangle;connectable=0;fillColor=none;top=0;left=0;bottom=0;right=0;editable=1;overflow=hidden;" vertex="1" parent="yR7JWTEhL-IKzRIPbE6F-24">
          <mxGeometry width="30" height="30" as="geometry" />
        </mxCell>
        <mxCell id="yR7JWTEhL-IKzRIPbE6F-26" value="City" style="shape=partialRectangle;connectable=0;fillColor=none;top=0;left=0;bottom=0;right=0;align=center;spacingLeft=6;overflow=hidden;fontStyle=1" vertex="1" parent="yR7JWTEhL-IKzRIPbE6F-24">
          <mxGeometry x="30" width="160" height="30" as="geometry" />
        </mxCell>
        <mxCell id="yR7JWTEhL-IKzRIPbE6F-27" value="" style="shape=partialRectangle;collapsible=0;dropTarget=0;pointerEvents=0;fillColor=none;top=0;left=0;bottom=0;right=0;points=[[0,0.5],[1,0.5]];portConstraint=eastwest;" vertex="1" parent="yR7JWTEhL-IKzRIPbE6F-17">
          <mxGeometry y="120" width="190" height="30" as="geometry" />
        </mxCell>
        <mxCell id="yR7JWTEhL-IKzRIPbE6F-28" value="" style="shape=partialRectangle;connectable=0;fillColor=none;top=0;left=0;bottom=0;right=0;editable=1;overflow=hidden;" vertex="1" parent="yR7JWTEhL-IKzRIPbE6F-27">
          <mxGeometry width="30" height="30" as="geometry" />
        </mxCell>
        <mxCell id="yR7JWTEhL-IKzRIPbE6F-29" value="Province" style="shape=partialRectangle;connectable=0;fillColor=none;top=0;left=0;bottom=0;right=0;align=center;spacingLeft=6;overflow=hidden;fontStyle=1" vertex="1" parent="yR7JWTEhL-IKzRIPbE6F-27">
          <mxGeometry x="30" width="160" height="30" as="geometry" />
        </mxCell>
        <mxCell id="yR7JWTEhL-IKzRIPbE6F-49" value="" style="shape=partialRectangle;collapsible=0;dropTarget=0;pointerEvents=0;fillColor=none;top=0;left=0;bottom=0;right=0;points=[[0,0.5],[1,0.5]];portConstraint=eastwest;" vertex="1" parent="yR7JWTEhL-IKzRIPbE6F-17">
          <mxGeometry y="150" width="190" height="30" as="geometry" />
        </mxCell>
        <mxCell id="yR7JWTEhL-IKzRIPbE6F-50" value="" style="shape=partialRectangle;connectable=0;fillColor=none;top=0;left=0;bottom=0;right=0;editable=1;overflow=hidden;" vertex="1" parent="yR7JWTEhL-IKzRIPbE6F-49">
          <mxGeometry width="30" height="30" as="geometry" />
        </mxCell>
        <mxCell id="yR7JWTEhL-IKzRIPbE6F-51" value="Postal Code" style="shape=partialRectangle;connectable=0;fillColor=none;top=0;left=0;bottom=0;right=0;align=center;spacingLeft=6;overflow=hidden;fontStyle=1" vertex="1" parent="yR7JWTEhL-IKzRIPbE6F-49">
          <mxGeometry x="30" width="160" height="30" as="geometry" />
        </mxCell>
        <mxCell id="yR7JWTEhL-IKzRIPbE6F-52" value="" style="shape=partialRectangle;collapsible=0;dropTarget=0;pointerEvents=0;fillColor=none;top=0;left=0;bottom=0;right=0;points=[[0,0.5],[1,0.5]];portConstraint=eastwest;" vertex="1" parent="yR7JWTEhL-IKzRIPbE6F-17">
          <mxGeometry y="180" width="190" height="30" as="geometry" />
        </mxCell>
        <mxCell id="yR7JWTEhL-IKzRIPbE6F-53" value="" style="shape=partialRectangle;connectable=0;fillColor=none;top=0;left=0;bottom=0;right=0;editable=1;overflow=hidden;" vertex="1" parent="yR7JWTEhL-IKzRIPbE6F-52">
          <mxGeometry width="30" height="30" as="geometry" />
        </mxCell>
        <mxCell id="yR7JWTEhL-IKzRIPbE6F-54" value="Is Headquarter" style="shape=partialRectangle;connectable=0;fillColor=none;top=0;left=0;bottom=0;right=0;align=center;spacingLeft=6;overflow=hidden;fontStyle=1" vertex="1" parent="yR7JWTEhL-IKzRIPbE6F-52">
          <mxGeometry x="30" width="160" height="30" as="geometry" />
        </mxCell>
        <mxCell id="yR7JWTEhL-IKzRIPbE6F-59" value="EMPLOYEE TYPE" style="swimlane;fontStyle=1;childLayout=stackLayout;horizontal=1;startSize=26;horizontalStack=0;resizeParent=1;resizeParentMax=0;resizeLast=0;collapsible=1;marginBottom=0;align=center;fontSize=14;" vertex="1" parent="1">
          <mxGeometry x="82" y="-120" width="160" height="56" as="geometry" />
        </mxCell>
        <mxCell id="yR7JWTEhL-IKzRIPbE6F-60" value="Employee Type" style="text;strokeColor=none;fillColor=none;spacingLeft=4;spacingRight=4;overflow=hidden;rotatable=0;points=[[0,0.5],[1,0.5]];portConstraint=eastwest;fontSize=12;fontStyle=1;align=center;" vertex="1" parent="yR7JWTEhL-IKzRIPbE6F-59">
          <mxGeometry y="26" width="160" height="30" as="geometry" />
        </mxCell>
        <mxCell id="yR7JWTEhL-IKzRIPbE6F-66" value="DROPOFF CHARGE" style="shape=table;startSize=30;container=1;collapsible=1;childLayout=tableLayout;fixedRows=1;rowLines=0;fontStyle=1;align=center;resizeLast=1;" vertex="1" parent="1">
          <mxGeometry x="82" y="880" width="180" height="160" as="geometry" />
        </mxCell>
        <mxCell id="yR7JWTEhL-IKzRIPbE6F-67" value="" style="shape=partialRectangle;collapsible=0;dropTarget=0;pointerEvents=0;fillColor=none;top=0;left=0;bottom=1;right=0;points=[[0,0.5],[1,0.5]];portConstraint=eastwest;" vertex="1" parent="yR7JWTEhL-IKzRIPbE6F-66">
          <mxGeometry y="30" width="180" height="30" as="geometry" />
        </mxCell>
        <mxCell id="yR7JWTEhL-IKzRIPbE6F-68" value="FK" style="shape=partialRectangle;connectable=0;fillColor=none;top=0;left=0;bottom=0;right=0;fontStyle=1;overflow=hidden;" vertex="1" parent="yR7JWTEhL-IKzRIPbE6F-67">
          <mxGeometry width="30" height="30" as="geometry" />
        </mxCell>
        <mxCell id="yR7JWTEhL-IKzRIPbE6F-69" value="Class Code" style="shape=partialRectangle;connectable=0;fillColor=none;top=0;left=0;bottom=0;right=0;align=left;spacingLeft=6;fontStyle=5;overflow=hidden;" vertex="1" parent="yR7JWTEhL-IKzRIPbE6F-67">
          <mxGeometry x="30" width="150" height="30" as="geometry" />
        </mxCell>
        <mxCell id="yR7JWTEhL-IKzRIPbE6F-70" value="" style="shape=partialRectangle;collapsible=0;dropTarget=0;pointerEvents=0;fillColor=none;top=0;left=0;bottom=0;right=0;points=[[0,0.5],[1,0.5]];portConstraint=eastwest;" vertex="1" parent="yR7JWTEhL-IKzRIPbE6F-66">
          <mxGeometry y="60" width="180" height="30" as="geometry" />
        </mxCell>
        <mxCell id="yR7JWTEhL-IKzRIPbE6F-71" value="FK" style="shape=partialRectangle;connectable=0;fillColor=none;top=0;left=0;bottom=0;right=0;editable=1;overflow=hidden;" vertex="1" parent="yR7JWTEhL-IKzRIPbE6F-70">
          <mxGeometry width="30" height="30" as="geometry" />
        </mxCell>
        <mxCell id="yR7JWTEhL-IKzRIPbE6F-72" value="From Location" style="shape=partialRectangle;connectable=0;fillColor=none;top=0;left=0;bottom=0;right=0;align=left;spacingLeft=6;overflow=hidden;" vertex="1" parent="yR7JWTEhL-IKzRIPbE6F-70">
          <mxGeometry x="30" width="150" height="30" as="geometry" />
        </mxCell>
        <mxCell id="yR7JWTEhL-IKzRIPbE6F-73" value="" style="shape=partialRectangle;collapsible=0;dropTarget=0;pointerEvents=0;fillColor=none;top=0;left=0;bottom=0;right=0;points=[[0,0.5],[1,0.5]];portConstraint=eastwest;" vertex="1" parent="yR7JWTEhL-IKzRIPbE6F-66">
          <mxGeometry y="90" width="180" height="30" as="geometry" />
        </mxCell>
        <mxCell id="yR7JWTEhL-IKzRIPbE6F-74" value="FK" style="shape=partialRectangle;connectable=0;fillColor=none;top=0;left=0;bottom=0;right=0;editable=1;overflow=hidden;" vertex="1" parent="yR7JWTEhL-IKzRIPbE6F-73">
          <mxGeometry width="30" height="30" as="geometry" />
        </mxCell>
        <mxCell id="yR7JWTEhL-IKzRIPbE6F-75" value="To Location" style="shape=partialRectangle;connectable=0;fillColor=none;top=0;left=0;bottom=0;right=0;align=left;spacingLeft=6;overflow=hidden;" vertex="1" parent="yR7JWTEhL-IKzRIPbE6F-73">
          <mxGeometry x="30" width="150" height="30" as="geometry" />
        </mxCell>
        <mxCell id="yR7JWTEhL-IKzRIPbE6F-76" value="" style="shape=partialRectangle;collapsible=0;dropTarget=0;pointerEvents=0;fillColor=none;top=0;left=0;bottom=0;right=0;points=[[0,0.5],[1,0.5]];portConstraint=eastwest;" vertex="1" parent="yR7JWTEhL-IKzRIPbE6F-66">
          <mxGeometry y="120" width="180" height="30" as="geometry" />
        </mxCell>
        <mxCell id="yR7JWTEhL-IKzRIPbE6F-77" value="" style="shape=partialRectangle;connectable=0;fillColor=none;top=0;left=0;bottom=0;right=0;editable=1;overflow=hidden;" vertex="1" parent="yR7JWTEhL-IKzRIPbE6F-76">
          <mxGeometry width="30" height="30" as="geometry" />
        </mxCell>
        <mxCell id="yR7JWTEhL-IKzRIPbE6F-78" value="Drop Off Charge" style="shape=partialRectangle;connectable=0;fillColor=none;top=0;left=0;bottom=0;right=0;align=left;spacingLeft=6;overflow=hidden;" vertex="1" parent="yR7JWTEhL-IKzRIPbE6F-76">
          <mxGeometry x="30" width="150" height="30" as="geometry" />
        </mxCell>
        <mxCell id="yR7JWTEhL-IKzRIPbE6F-94" value="Phone" style="shape=table;startSize=30;container=1;collapsible=1;childLayout=tableLayout;fixedRows=1;rowLines=0;fontStyle=1;align=center;resizeLast=1;" vertex="1" parent="1">
          <mxGeometry x="400" y="-120" width="180" height="120" as="geometry" />
        </mxCell>
        <mxCell id="yR7JWTEhL-IKzRIPbE6F-95" value="" style="shape=partialRectangle;collapsible=0;dropTarget=0;pointerEvents=0;fillColor=none;top=0;left=0;bottom=1;right=0;points=[[0,0.5],[1,0.5]];portConstraint=eastwest;" vertex="1" parent="yR7JWTEhL-IKzRIPbE6F-94">
          <mxGeometry y="30" width="180" height="30" as="geometry" />
        </mxCell>
        <mxCell id="yR7JWTEhL-IKzRIPbE6F-96" value="" style="shape=partialRectangle;connectable=0;fillColor=none;top=0;left=0;bottom=0;right=0;fontStyle=1;overflow=hidden;" vertex="1" parent="yR7JWTEhL-IKzRIPbE6F-95">
          <mxGeometry width="30" height="30" as="geometry" />
        </mxCell>
        <mxCell id="yR7JWTEhL-IKzRIPbE6F-97" value="Phone Number" style="shape=partialRectangle;connectable=0;fillColor=none;top=0;left=0;bottom=0;right=0;align=left;spacingLeft=6;fontStyle=5;overflow=hidden;" vertex="1" parent="yR7JWTEhL-IKzRIPbE6F-95">
          <mxGeometry x="30" width="150" height="30" as="geometry" />
        </mxCell>
        <mxCell id="yR7JWTEhL-IKzRIPbE6F-98" value="" style="shape=partialRectangle;collapsible=0;dropTarget=0;pointerEvents=0;fillColor=none;top=0;left=0;bottom=0;right=0;points=[[0,0.5],[1,0.5]];portConstraint=eastwest;" vertex="1" parent="yR7JWTEhL-IKzRIPbE6F-94">
          <mxGeometry y="60" width="180" height="30" as="geometry" />
        </mxCell>
        <mxCell id="yR7JWTEhL-IKzRIPbE6F-99" value="FK" style="shape=partialRectangle;connectable=0;fillColor=none;top=0;left=0;bottom=0;right=0;editable=1;overflow=hidden;" vertex="1" parent="yR7JWTEhL-IKzRIPbE6F-98">
          <mxGeometry width="30" height="30" as="geometry" />
        </mxCell>
        <mxCell id="yR7JWTEhL-IKzRIPbE6F-100" value="Driver License" style="shape=partialRectangle;connectable=0;fillColor=none;top=0;left=0;bottom=0;right=0;align=left;spacingLeft=6;overflow=hidden;" vertex="1" parent="yR7JWTEhL-IKzRIPbE6F-98">
          <mxGeometry x="30" width="150" height="30" as="geometry" />
        </mxCell>
        <mxCell id="yR7JWTEhL-IKzRIPbE6F-104" value="" style="shape=partialRectangle;collapsible=0;dropTarget=0;pointerEvents=0;fillColor=none;top=0;left=0;bottom=0;right=0;points=[[0,0.5],[1,0.5]];portConstraint=eastwest;" vertex="1" parent="yR7JWTEhL-IKzRIPbE6F-94">
          <mxGeometry y="90" width="180" height="30" as="geometry" />
        </mxCell>
        <mxCell id="yR7JWTEhL-IKzRIPbE6F-105" value="" style="shape=partialRectangle;connectable=0;fillColor=none;top=0;left=0;bottom=0;right=0;editable=1;overflow=hidden;" vertex="1" parent="yR7JWTEhL-IKzRIPbE6F-104">
          <mxGeometry width="30" height="30" as="geometry" />
        </mxCell>
        <mxCell id="yR7JWTEhL-IKzRIPbE6F-106" value="" style="shape=partialRectangle;connectable=0;fillColor=none;top=0;left=0;bottom=0;right=0;align=left;spacingLeft=6;overflow=hidden;" vertex="1" parent="yR7JWTEhL-IKzRIPbE6F-104">
          <mxGeometry x="30" width="150" height="30" as="geometry" />
        </mxCell>
        <mxCell id="yR7JWTEhL-IKzRIPbE6F-108" value="Person" style="shape=table;startSize=30;container=1;collapsible=1;childLayout=tableLayout;fixedRows=1;rowLines=0;fontStyle=1;align=center;resizeLast=1;" vertex="1" parent="1">
          <mxGeometry x="400" y="160" width="180" height="160" as="geometry" />
        </mxCell>
        <mxCell id="yR7JWTEhL-IKzRIPbE6F-109" value="" style="shape=partialRectangle;collapsible=0;dropTarget=0;pointerEvents=0;fillColor=none;top=0;left=0;bottom=1;right=0;points=[[0,0.5],[1,0.5]];portConstraint=eastwest;" vertex="1" parent="yR7JWTEhL-IKzRIPbE6F-108">
          <mxGeometry y="30" width="180" height="30" as="geometry" />
        </mxCell>
        <mxCell id="yR7JWTEhL-IKzRIPbE6F-110" value="PK" style="shape=partialRectangle;connectable=0;fillColor=none;top=0;left=0;bottom=0;right=0;fontStyle=1;overflow=hidden;" vertex="1" parent="yR7JWTEhL-IKzRIPbE6F-109">
          <mxGeometry width="30" height="30" as="geometry" />
        </mxCell>
        <mxCell id="yR7JWTEhL-IKzRIPbE6F-111" value="Driver License" style="shape=partialRectangle;connectable=0;fillColor=none;top=0;left=0;bottom=0;right=0;align=left;spacingLeft=6;fontStyle=5;overflow=hidden;" vertex="1" parent="yR7JWTEhL-IKzRIPbE6F-109">
          <mxGeometry x="30" width="150" height="30" as="geometry" />
        </mxCell>
        <mxCell id="yR7JWTEhL-IKzRIPbE6F-112" value="" style="shape=partialRectangle;collapsible=0;dropTarget=0;pointerEvents=0;fillColor=none;top=0;left=0;bottom=0;right=0;points=[[0,0.5],[1,0.5]];portConstraint=eastwest;" vertex="1" parent="yR7JWTEhL-IKzRIPbE6F-108">
          <mxGeometry y="60" width="180" height="30" as="geometry" />
        </mxCell>
        <mxCell id="yR7JWTEhL-IKzRIPbE6F-113" value="FK" style="shape=partialRectangle;connectable=0;fillColor=none;top=0;left=0;bottom=0;right=0;editable=1;overflow=hidden;" vertex="1" parent="yR7JWTEhL-IKzRIPbE6F-112">
          <mxGeometry width="30" height="30" as="geometry" />
        </mxCell>
        <mxCell id="yR7JWTEhL-IKzRIPbE6F-114" value="Address Id" style="shape=partialRectangle;connectable=0;fillColor=none;top=0;left=0;bottom=0;right=0;align=left;spacingLeft=6;overflow=hidden;" vertex="1" parent="yR7JWTEhL-IKzRIPbE6F-112">
          <mxGeometry x="30" width="150" height="30" as="geometry" />
        </mxCell>
        <mxCell id="yR7JWTEhL-IKzRIPbE6F-115" value="" style="shape=partialRectangle;collapsible=0;dropTarget=0;pointerEvents=0;fillColor=none;top=0;left=0;bottom=0;right=0;points=[[0,0.5],[1,0.5]];portConstraint=eastwest;" vertex="1" parent="yR7JWTEhL-IKzRIPbE6F-108">
          <mxGeometry y="90" width="180" height="30" as="geometry" />
        </mxCell>
        <mxCell id="yR7JWTEhL-IKzRIPbE6F-116" value="" style="shape=partialRectangle;connectable=0;fillColor=none;top=0;left=0;bottom=0;right=0;editable=1;overflow=hidden;" vertex="1" parent="yR7JWTEhL-IKzRIPbE6F-115">
          <mxGeometry width="30" height="30" as="geometry" />
        </mxCell>
        <mxCell id="yR7JWTEhL-IKzRIPbE6F-117" value="First Name" style="shape=partialRectangle;connectable=0;fillColor=none;top=0;left=0;bottom=0;right=0;align=left;spacingLeft=6;overflow=hidden;" vertex="1" parent="yR7JWTEhL-IKzRIPbE6F-115">
          <mxGeometry x="30" width="150" height="30" as="geometry" />
        </mxCell>
        <mxCell id="yR7JWTEhL-IKzRIPbE6F-118" value="" style="shape=partialRectangle;collapsible=0;dropTarget=0;pointerEvents=0;fillColor=none;top=0;left=0;bottom=0;right=0;points=[[0,0.5],[1,0.5]];portConstraint=eastwest;" vertex="1" parent="yR7JWTEhL-IKzRIPbE6F-108">
          <mxGeometry y="120" width="180" height="30" as="geometry" />
        </mxCell>
        <mxCell id="yR7JWTEhL-IKzRIPbE6F-119" value="" style="shape=partialRectangle;connectable=0;fillColor=none;top=0;left=0;bottom=0;right=0;editable=1;overflow=hidden;" vertex="1" parent="yR7JWTEhL-IKzRIPbE6F-118">
          <mxGeometry width="30" height="30" as="geometry" />
        </mxCell>
        <mxCell id="yR7JWTEhL-IKzRIPbE6F-120" value="Last Name" style="shape=partialRectangle;connectable=0;fillColor=none;top=0;left=0;bottom=0;right=0;align=left;spacingLeft=6;overflow=hidden;" vertex="1" parent="yR7JWTEhL-IKzRIPbE6F-118">
          <mxGeometry x="30" width="150" height="30" as="geometry" />
        </mxCell>
        <mxCell id="yR7JWTEhL-IKzRIPbE6F-123" value="CUSTOMER" style="shape=table;startSize=30;container=1;collapsible=1;childLayout=tableLayout;fixedRows=1;rowLines=0;fontStyle=1;align=center;resizeLast=1;" vertex="1" parent="1">
          <mxGeometry x="400" y="550" width="180" height="100" as="geometry" />
        </mxCell>
        <mxCell id="yR7JWTEhL-IKzRIPbE6F-124" value="" style="shape=partialRectangle;collapsible=0;dropTarget=0;pointerEvents=0;fillColor=none;top=0;left=0;bottom=1;right=0;points=[[0,0.5],[1,0.5]];portConstraint=eastwest;" vertex="1" parent="yR7JWTEhL-IKzRIPbE6F-123">
          <mxGeometry y="30" width="180" height="30" as="geometry" />
        </mxCell>
        <mxCell id="yR7JWTEhL-IKzRIPbE6F-125" value="FK" style="shape=partialRectangle;connectable=0;fillColor=none;top=0;left=0;bottom=0;right=0;fontStyle=1;overflow=hidden;" vertex="1" parent="yR7JWTEhL-IKzRIPbE6F-124">
          <mxGeometry width="30" height="30" as="geometry" />
        </mxCell>
        <mxCell id="yR7JWTEhL-IKzRIPbE6F-126" value="Driver License" style="shape=partialRectangle;connectable=0;fillColor=none;top=0;left=0;bottom=0;right=0;align=left;spacingLeft=6;fontStyle=5;overflow=hidden;" vertex="1" parent="yR7JWTEhL-IKzRIPbE6F-124">
          <mxGeometry x="30" width="150" height="30" as="geometry" />
        </mxCell>
        <mxCell id="yR7JWTEhL-IKzRIPbE6F-127" value="" style="shape=partialRectangle;collapsible=0;dropTarget=0;pointerEvents=0;fillColor=none;top=0;left=0;bottom=0;right=0;points=[[0,0.5],[1,0.5]];portConstraint=eastwest;" vertex="1" parent="yR7JWTEhL-IKzRIPbE6F-123">
          <mxGeometry y="60" width="180" height="30" as="geometry" />
        </mxCell>
        <mxCell id="yR7JWTEhL-IKzRIPbE6F-128" value="" style="shape=partialRectangle;connectable=0;fillColor=none;top=0;left=0;bottom=0;right=0;editable=1;overflow=hidden;" vertex="1" parent="yR7JWTEhL-IKzRIPbE6F-127">
          <mxGeometry width="30" height="30" as="geometry" />
        </mxCell>
        <mxCell id="yR7JWTEhL-IKzRIPbE6F-129" value="" style="shape=partialRectangle;connectable=0;fillColor=none;top=0;left=0;bottom=0;right=0;align=left;spacingLeft=6;overflow=hidden;" vertex="1" parent="yR7JWTEhL-IKzRIPbE6F-127">
          <mxGeometry x="30" width="150" height="30" as="geometry" />
        </mxCell>
        <mxCell id="yR7JWTEhL-IKzRIPbE6F-136" value="Rental Rate" style="shape=table;startSize=30;container=1;collapsible=1;childLayout=tableLayout;fixedRows=1;rowLines=0;fontStyle=1;align=center;resizeLast=1;" vertex="1" parent="1">
          <mxGeometry x="800" y="-120" width="180" height="160" as="geometry" />
        </mxCell>
        <mxCell id="yR7JWTEhL-IKzRIPbE6F-137" value="" style="shape=partialRectangle;collapsible=0;dropTarget=0;pointerEvents=0;fillColor=none;top=0;left=0;bottom=1;right=0;points=[[0,0.5],[1,0.5]];portConstraint=eastwest;" vertex="1" parent="yR7JWTEhL-IKzRIPbE6F-136">
          <mxGeometry y="30" width="180" height="30" as="geometry" />
        </mxCell>
        <mxCell id="yR7JWTEhL-IKzRIPbE6F-138" value="FK" style="shape=partialRectangle;connectable=0;fillColor=none;top=0;left=0;bottom=0;right=0;fontStyle=1;overflow=hidden;" vertex="1" parent="yR7JWTEhL-IKzRIPbE6F-137">
          <mxGeometry width="30" height="30" as="geometry" />
        </mxCell>
        <mxCell id="yR7JWTEhL-IKzRIPbE6F-139" value="Rental ID" style="shape=partialRectangle;connectable=0;fillColor=none;top=0;left=0;bottom=0;right=0;align=left;spacingLeft=6;fontStyle=5;overflow=hidden;" vertex="1" parent="yR7JWTEhL-IKzRIPbE6F-137">
          <mxGeometry x="30" width="150" height="30" as="geometry" />
        </mxCell>
        <mxCell id="yR7JWTEhL-IKzRIPbE6F-149" value="" style="shape=partialRectangle;collapsible=0;dropTarget=0;pointerEvents=0;fillColor=none;top=0;left=0;bottom=1;right=0;points=[[0,0.5],[1,0.5]];portConstraint=eastwest;" vertex="1" parent="yR7JWTEhL-IKzRIPbE6F-136">
          <mxGeometry y="60" width="180" height="30" as="geometry" />
        </mxCell>
        <mxCell id="yR7JWTEhL-IKzRIPbE6F-150" value="FK" style="shape=partialRectangle;connectable=0;fillColor=none;top=0;left=0;bottom=0;right=0;fontStyle=1;overflow=hidden;" vertex="1" parent="yR7JWTEhL-IKzRIPbE6F-149">
          <mxGeometry width="30" height="30" as="geometry" />
        </mxCell>
        <mxCell id="yR7JWTEhL-IKzRIPbE6F-151" value="Duration" style="shape=partialRectangle;connectable=0;fillColor=none;top=0;left=0;bottom=0;right=0;align=left;spacingLeft=6;fontStyle=5;overflow=hidden;" vertex="1" parent="yR7JWTEhL-IKzRIPbE6F-149">
          <mxGeometry x="30" width="150" height="30" as="geometry" />
        </mxCell>
        <mxCell id="yR7JWTEhL-IKzRIPbE6F-155" value="" style="shape=partialRectangle;collapsible=0;dropTarget=0;pointerEvents=0;fillColor=none;top=0;left=0;bottom=1;right=0;points=[[0,0.5],[1,0.5]];portConstraint=eastwest;" vertex="1" parent="yR7JWTEhL-IKzRIPbE6F-136">
          <mxGeometry y="90" width="180" height="30" as="geometry" />
        </mxCell>
        <mxCell id="yR7JWTEhL-IKzRIPbE6F-156" value="FK" style="shape=partialRectangle;connectable=0;fillColor=none;top=0;left=0;bottom=0;right=0;fontStyle=1;overflow=hidden;" vertex="1" parent="yR7JWTEhL-IKzRIPbE6F-155">
          <mxGeometry width="30" height="30" as="geometry" />
        </mxCell>
        <mxCell id="yR7JWTEhL-IKzRIPbE6F-157" value="Class Code" style="shape=partialRectangle;connectable=0;fillColor=none;top=0;left=0;bottom=0;right=0;align=left;spacingLeft=6;fontStyle=5;overflow=hidden;" vertex="1" parent="yR7JWTEhL-IKzRIPbE6F-155">
          <mxGeometry x="30" width="150" height="30" as="geometry" />
        </mxCell>
        <mxCell id="yR7JWTEhL-IKzRIPbE6F-158" value="" style="shape=partialRectangle;collapsible=0;dropTarget=0;pointerEvents=0;fillColor=none;top=0;left=0;bottom=0;right=0;points=[[0,0.5],[1,0.5]];portConstraint=eastwest;" vertex="1" parent="yR7JWTEhL-IKzRIPbE6F-136">
          <mxGeometry y="120" width="180" height="30" as="geometry" />
        </mxCell>
        <mxCell id="yR7JWTEhL-IKzRIPbE6F-159" value="" style="shape=partialRectangle;connectable=0;fillColor=none;top=0;left=0;bottom=0;right=0;editable=1;overflow=hidden;" vertex="1" parent="yR7JWTEhL-IKzRIPbE6F-158">
          <mxGeometry width="30" height="30" as="geometry" />
        </mxCell>
        <mxCell id="yR7JWTEhL-IKzRIPbE6F-160" value="Count" style="shape=partialRectangle;connectable=0;fillColor=none;top=0;left=0;bottom=0;right=0;align=left;spacingLeft=6;overflow=hidden;" vertex="1" parent="yR7JWTEhL-IKzRIPbE6F-158">
          <mxGeometry x="30" width="150" height="30" as="geometry" />
        </mxCell>
        <mxCell id="yR7JWTEhL-IKzRIPbE6F-162" value="RENTAL" style="shape=table;startSize=30;container=1;collapsible=1;childLayout=tableLayout;fixedRows=1;rowLines=0;fontStyle=1;align=center;resizeLast=1;" vertex="1" parent="1">
          <mxGeometry x="800" y="160" width="180" height="340" as="geometry" />
        </mxCell>
        <mxCell id="yR7JWTEhL-IKzRIPbE6F-163" value="" style="shape=partialRectangle;collapsible=0;dropTarget=0;pointerEvents=0;fillColor=none;top=0;left=0;bottom=1;right=0;points=[[0,0.5],[1,0.5]];portConstraint=eastwest;" vertex="1" parent="yR7JWTEhL-IKzRIPbE6F-162">
          <mxGeometry y="30" width="180" height="30" as="geometry" />
        </mxCell>
        <mxCell id="yR7JWTEhL-IKzRIPbE6F-164" value="" style="shape=partialRectangle;connectable=0;fillColor=none;top=0;left=0;bottom=0;right=0;fontStyle=1;overflow=hidden;" vertex="1" parent="yR7JWTEhL-IKzRIPbE6F-163">
          <mxGeometry width="30" height="30" as="geometry" />
        </mxCell>
        <mxCell id="yR7JWTEhL-IKzRIPbE6F-165" value="Rental ID" style="shape=partialRectangle;connectable=0;fillColor=none;top=0;left=0;bottom=0;right=0;align=left;spacingLeft=6;fontStyle=5;overflow=hidden;" vertex="1" parent="yR7JWTEhL-IKzRIPbE6F-163">
          <mxGeometry x="30" width="150" height="30" as="geometry" />
        </mxCell>
        <mxCell id="yR7JWTEhL-IKzRIPbE6F-169" value="" style="shape=partialRectangle;collapsible=0;dropTarget=0;pointerEvents=0;fillColor=none;top=0;left=0;bottom=0;right=0;points=[[0,0.5],[1,0.5]];portConstraint=eastwest;" vertex="1" parent="yR7JWTEhL-IKzRIPbE6F-162">
          <mxGeometry y="60" width="180" height="30" as="geometry" />
        </mxCell>
        <mxCell id="yR7JWTEhL-IKzRIPbE6F-170" value="FK" style="shape=partialRectangle;connectable=0;fillColor=none;top=0;left=0;bottom=0;right=0;editable=1;overflow=hidden;" vertex="1" parent="yR7JWTEhL-IKzRIPbE6F-169">
          <mxGeometry width="30" height="30" as="geometry" />
        </mxCell>
        <mxCell id="yR7JWTEhL-IKzRIPbE6F-171" value="Driving License" style="shape=partialRectangle;connectable=0;fillColor=none;top=0;left=0;bottom=0;right=0;align=left;spacingLeft=6;overflow=hidden;" vertex="1" parent="yR7JWTEhL-IKzRIPbE6F-169">
          <mxGeometry x="30" width="150" height="30" as="geometry" />
        </mxCell>
        <mxCell id="yR7JWTEhL-IKzRIPbE6F-172" value="" style="shape=partialRectangle;collapsible=0;dropTarget=0;pointerEvents=0;fillColor=none;top=0;left=0;bottom=0;right=0;points=[[0,0.5],[1,0.5]];portConstraint=eastwest;" vertex="1" parent="yR7JWTEhL-IKzRIPbE6F-162">
          <mxGeometry y="90" width="180" height="30" as="geometry" />
        </mxCell>
        <mxCell id="yR7JWTEhL-IKzRIPbE6F-173" value="FK" style="shape=partialRectangle;connectable=0;fillColor=none;top=0;left=0;bottom=0;right=0;editable=1;overflow=hidden;" vertex="1" parent="yR7JWTEhL-IKzRIPbE6F-172">
          <mxGeometry width="30" height="30" as="geometry" />
        </mxCell>
        <mxCell id="yR7JWTEhL-IKzRIPbE6F-174" value="Car Id" style="shape=partialRectangle;connectable=0;fillColor=none;top=0;left=0;bottom=0;right=0;align=left;spacingLeft=6;overflow=hidden;" vertex="1" parent="yR7JWTEhL-IKzRIPbE6F-172">
          <mxGeometry x="30" width="150" height="30" as="geometry" />
        </mxCell>
        <mxCell id="yR7JWTEhL-IKzRIPbE6F-175" value="" style="shape=partialRectangle;collapsible=0;dropTarget=0;pointerEvents=0;fillColor=none;top=0;left=0;bottom=0;right=0;points=[[0,0.5],[1,0.5]];portConstraint=eastwest;" vertex="1" parent="yR7JWTEhL-IKzRIPbE6F-162">
          <mxGeometry y="120" width="180" height="30" as="geometry" />
        </mxCell>
        <mxCell id="yR7JWTEhL-IKzRIPbE6F-176" value="FK" style="shape=partialRectangle;connectable=0;fillColor=none;top=0;left=0;bottom=0;right=0;editable=1;overflow=hidden;" vertex="1" parent="yR7JWTEhL-IKzRIPbE6F-175">
          <mxGeometry width="30" height="30" as="geometry" />
        </mxCell>
        <mxCell id="yR7JWTEhL-IKzRIPbE6F-177" value="From Location" style="shape=partialRectangle;connectable=0;fillColor=none;top=0;left=0;bottom=0;right=0;align=left;spacingLeft=6;overflow=hidden;" vertex="1" parent="yR7JWTEhL-IKzRIPbE6F-175">
          <mxGeometry x="30" width="150" height="30" as="geometry" />
        </mxCell>
        <mxCell id="yR7JWTEhL-IKzRIPbE6F-178" value="" style="shape=partialRectangle;collapsible=0;dropTarget=0;pointerEvents=0;fillColor=none;top=0;left=0;bottom=0;right=0;points=[[0,0.5],[1,0.5]];portConstraint=eastwest;" vertex="1" parent="yR7JWTEhL-IKzRIPbE6F-162">
          <mxGeometry y="150" width="180" height="30" as="geometry" />
        </mxCell>
        <mxCell id="yR7JWTEhL-IKzRIPbE6F-179" value="FK" style="shape=partialRectangle;connectable=0;fillColor=none;top=0;left=0;bottom=0;right=0;editable=1;overflow=hidden;" vertex="1" parent="yR7JWTEhL-IKzRIPbE6F-178">
          <mxGeometry width="30" height="30" as="geometry" />
        </mxCell>
        <mxCell id="yR7JWTEhL-IKzRIPbE6F-180" value="Drop Off Location" style="shape=partialRectangle;connectable=0;fillColor=none;top=0;left=0;bottom=0;right=0;align=left;spacingLeft=6;overflow=hidden;" vertex="1" parent="yR7JWTEhL-IKzRIPbE6F-178">
          <mxGeometry x="30" width="150" height="30" as="geometry" />
        </mxCell>
        <mxCell id="yR7JWTEhL-IKzRIPbE6F-200" value="" style="shape=partialRectangle;collapsible=0;dropTarget=0;pointerEvents=0;fillColor=none;top=0;left=0;bottom=0;right=0;points=[[0,0.5],[1,0.5]];portConstraint=eastwest;" vertex="1" parent="yR7JWTEhL-IKzRIPbE6F-162">
          <mxGeometry y="180" width="180" height="30" as="geometry" />
        </mxCell>
        <mxCell id="yR7JWTEhL-IKzRIPbE6F-201" value="" style="shape=partialRectangle;connectable=0;fillColor=none;top=0;left=0;bottom=0;right=0;editable=1;overflow=hidden;" vertex="1" parent="yR7JWTEhL-IKzRIPbE6F-200">
          <mxGeometry width="30" height="30" as="geometry" />
        </mxCell>
        <mxCell id="yR7JWTEhL-IKzRIPbE6F-202" value="From Date" style="shape=partialRectangle;connectable=0;fillColor=none;top=0;left=0;bottom=0;right=0;align=left;spacingLeft=6;overflow=hidden;" vertex="1" parent="yR7JWTEhL-IKzRIPbE6F-200">
          <mxGeometry x="30" width="150" height="30" as="geometry" />
        </mxCell>
        <mxCell id="yR7JWTEhL-IKzRIPbE6F-203" value="" style="shape=partialRectangle;collapsible=0;dropTarget=0;pointerEvents=0;fillColor=none;top=0;left=0;bottom=0;right=0;points=[[0,0.5],[1,0.5]];portConstraint=eastwest;" vertex="1" parent="yR7JWTEhL-IKzRIPbE6F-162">
          <mxGeometry y="210" width="180" height="30" as="geometry" />
        </mxCell>
        <mxCell id="yR7JWTEhL-IKzRIPbE6F-204" value="" style="shape=partialRectangle;connectable=0;fillColor=none;top=0;left=0;bottom=0;right=0;editable=1;overflow=hidden;" vertex="1" parent="yR7JWTEhL-IKzRIPbE6F-203">
          <mxGeometry width="30" height="30" as="geometry" />
        </mxCell>
        <mxCell id="yR7JWTEhL-IKzRIPbE6F-205" value="To Date" style="shape=partialRectangle;connectable=0;fillColor=none;top=0;left=0;bottom=0;right=0;align=left;spacingLeft=6;overflow=hidden;" vertex="1" parent="yR7JWTEhL-IKzRIPbE6F-203">
          <mxGeometry x="30" width="150" height="30" as="geometry" />
        </mxCell>
        <mxCell id="yR7JWTEhL-IKzRIPbE6F-206" value="" style="shape=partialRectangle;collapsible=0;dropTarget=0;pointerEvents=0;fillColor=none;top=0;left=0;bottom=0;right=0;points=[[0,0.5],[1,0.5]];portConstraint=eastwest;" vertex="1" parent="yR7JWTEhL-IKzRIPbE6F-162">
          <mxGeometry y="240" width="180" height="30" as="geometry" />
        </mxCell>
        <mxCell id="yR7JWTEhL-IKzRIPbE6F-207" value="" style="shape=partialRectangle;connectable=0;fillColor=none;top=0;left=0;bottom=0;right=0;editable=1;overflow=hidden;" vertex="1" parent="yR7JWTEhL-IKzRIPbE6F-206">
          <mxGeometry width="30" height="30" as="geometry" />
        </mxCell>
        <mxCell id="yR7JWTEhL-IKzRIPbE6F-208" value="Tank Status" style="shape=partialRectangle;connectable=0;fillColor=none;top=0;left=0;bottom=0;right=0;align=left;spacingLeft=6;overflow=hidden;" vertex="1" parent="yR7JWTEhL-IKzRIPbE6F-206">
          <mxGeometry x="30" width="150" height="30" as="geometry" />
        </mxCell>
        <mxCell id="yR7JWTEhL-IKzRIPbE6F-166" value="" style="shape=partialRectangle;collapsible=0;dropTarget=0;pointerEvents=0;fillColor=none;top=0;left=0;bottom=0;right=0;points=[[0,0.5],[1,0.5]];portConstraint=eastwest;" vertex="1" parent="yR7JWTEhL-IKzRIPbE6F-162">
          <mxGeometry y="270" width="180" height="30" as="geometry" />
        </mxCell>
        <mxCell id="yR7JWTEhL-IKzRIPbE6F-167" value="" style="shape=partialRectangle;connectable=0;fillColor=none;top=0;left=0;bottom=0;right=0;editable=1;overflow=hidden;" vertex="1" parent="yR7JWTEhL-IKzRIPbE6F-166">
          <mxGeometry width="30" height="30" as="geometry" />
        </mxCell>
        <mxCell id="yR7JWTEhL-IKzRIPbE6F-168" value="Initial Odometer" style="shape=partialRectangle;connectable=0;fillColor=none;top=0;left=0;bottom=0;right=0;align=left;spacingLeft=6;overflow=hidden;" vertex="1" parent="yR7JWTEhL-IKzRIPbE6F-166">
          <mxGeometry x="30" width="150" height="30" as="geometry" />
        </mxCell>
        <mxCell id="yR7JWTEhL-IKzRIPbE6F-209" value="" style="shape=partialRectangle;collapsible=0;dropTarget=0;pointerEvents=0;fillColor=none;top=0;left=0;bottom=0;right=0;points=[[0,0.5],[1,0.5]];portConstraint=eastwest;" vertex="1" parent="yR7JWTEhL-IKzRIPbE6F-162">
          <mxGeometry y="300" width="180" height="30" as="geometry" />
        </mxCell>
        <mxCell id="yR7JWTEhL-IKzRIPbE6F-210" value="" style="shape=partialRectangle;connectable=0;fillColor=none;top=0;left=0;bottom=0;right=0;editable=1;overflow=hidden;" vertex="1" parent="yR7JWTEhL-IKzRIPbE6F-209">
          <mxGeometry width="30" height="30" as="geometry" />
        </mxCell>
        <mxCell id="yR7JWTEhL-IKzRIPbE6F-211" value="Return Odometer" style="shape=partialRectangle;connectable=0;fillColor=none;top=0;left=0;bottom=0;right=0;align=left;spacingLeft=6;overflow=hidden;" vertex="1" parent="yR7JWTEhL-IKzRIPbE6F-209">
          <mxGeometry x="30" width="150" height="30" as="geometry" />
        </mxCell>
        <mxCell id="yR7JWTEhL-IKzRIPbE6F-212" value="CAR" style="shape=table;startSize=30;container=1;collapsible=1;childLayout=tableLayout;fixedRows=1;rowLines=0;fontStyle=1;align=center;resizeLast=1;" vertex="1" parent="1">
          <mxGeometry x="559" y="800" width="180" height="280" as="geometry" />
        </mxCell>
        <mxCell id="yR7JWTEhL-IKzRIPbE6F-213" value="" style="shape=partialRectangle;collapsible=0;dropTarget=0;pointerEvents=0;fillColor=none;top=0;left=0;bottom=1;right=0;points=[[0,0.5],[1,0.5]];portConstraint=eastwest;" vertex="1" parent="yR7JWTEhL-IKzRIPbE6F-212">
          <mxGeometry y="30" width="180" height="30" as="geometry" />
        </mxCell>
        <mxCell id="yR7JWTEhL-IKzRIPbE6F-214" value="" style="shape=partialRectangle;connectable=0;fillColor=none;top=0;left=0;bottom=0;right=0;fontStyle=1;overflow=hidden;" vertex="1" parent="yR7JWTEhL-IKzRIPbE6F-213">
          <mxGeometry width="30" height="30" as="geometry" />
        </mxCell>
        <mxCell id="yR7JWTEhL-IKzRIPbE6F-215" value="Car ID" style="shape=partialRectangle;connectable=0;fillColor=none;top=0;left=0;bottom=0;right=0;align=left;spacingLeft=6;fontStyle=5;overflow=hidden;" vertex="1" parent="yR7JWTEhL-IKzRIPbE6F-213">
          <mxGeometry x="30" width="150" height="30" as="geometry" />
        </mxCell>
        <mxCell id="yR7JWTEhL-IKzRIPbE6F-216" value="" style="shape=partialRectangle;collapsible=0;dropTarget=0;pointerEvents=0;fillColor=none;top=0;left=0;bottom=0;right=0;points=[[0,0.5],[1,0.5]];portConstraint=eastwest;" vertex="1" parent="yR7JWTEhL-IKzRIPbE6F-212">
          <mxGeometry y="60" width="180" height="30" as="geometry" />
        </mxCell>
        <mxCell id="yR7JWTEhL-IKzRIPbE6F-217" value="FK" style="shape=partialRectangle;connectable=0;fillColor=none;top=0;left=0;bottom=0;right=0;editable=1;overflow=hidden;" vertex="1" parent="yR7JWTEhL-IKzRIPbE6F-216">
          <mxGeometry width="30" height="30" as="geometry" />
        </mxCell>
        <mxCell id="yR7JWTEhL-IKzRIPbE6F-218" value="Class Code" style="shape=partialRectangle;connectable=0;fillColor=none;top=0;left=0;bottom=0;right=0;align=left;spacingLeft=6;overflow=hidden;" vertex="1" parent="yR7JWTEhL-IKzRIPbE6F-216">
          <mxGeometry x="30" width="150" height="30" as="geometry" />
        </mxCell>
        <mxCell id="yR7JWTEhL-IKzRIPbE6F-219" value="" style="shape=partialRectangle;collapsible=0;dropTarget=0;pointerEvents=0;fillColor=none;top=0;left=0;bottom=0;right=0;points=[[0,0.5],[1,0.5]];portConstraint=eastwest;" vertex="1" parent="yR7JWTEhL-IKzRIPbE6F-212">
          <mxGeometry y="90" width="180" height="30" as="geometry" />
        </mxCell>
        <mxCell id="yR7JWTEhL-IKzRIPbE6F-220" value="FK" style="shape=partialRectangle;connectable=0;fillColor=none;top=0;left=0;bottom=0;right=0;editable=1;overflow=hidden;" vertex="1" parent="yR7JWTEhL-IKzRIPbE6F-219">
          <mxGeometry width="30" height="30" as="geometry" />
        </mxCell>
        <mxCell id="yR7JWTEhL-IKzRIPbE6F-221" value="Car Location" style="shape=partialRectangle;connectable=0;fillColor=none;top=0;left=0;bottom=0;right=0;align=left;spacingLeft=6;overflow=hidden;" vertex="1" parent="yR7JWTEhL-IKzRIPbE6F-219">
          <mxGeometry x="30" width="150" height="30" as="geometry" />
        </mxCell>
        <mxCell id="yR7JWTEhL-IKzRIPbE6F-222" value="" style="shape=partialRectangle;collapsible=0;dropTarget=0;pointerEvents=0;fillColor=none;top=0;left=0;bottom=0;right=0;points=[[0,0.5],[1,0.5]];portConstraint=eastwest;" vertex="1" parent="yR7JWTEhL-IKzRIPbE6F-212">
          <mxGeometry y="120" width="180" height="30" as="geometry" />
        </mxCell>
        <mxCell id="yR7JWTEhL-IKzRIPbE6F-223" value="" style="shape=partialRectangle;connectable=0;fillColor=none;top=0;left=0;bottom=0;right=0;editable=1;overflow=hidden;" vertex="1" parent="yR7JWTEhL-IKzRIPbE6F-222">
          <mxGeometry width="30" height="30" as="geometry" />
        </mxCell>
        <mxCell id="yR7JWTEhL-IKzRIPbE6F-224" value="Make" style="shape=partialRectangle;connectable=0;fillColor=none;top=0;left=0;bottom=0;right=0;align=left;spacingLeft=6;overflow=hidden;" vertex="1" parent="yR7JWTEhL-IKzRIPbE6F-222">
          <mxGeometry x="30" width="150" height="30" as="geometry" />
        </mxCell>
        <mxCell id="yR7JWTEhL-IKzRIPbE6F-225" value="" style="shape=partialRectangle;collapsible=0;dropTarget=0;pointerEvents=0;fillColor=none;top=0;left=0;bottom=0;right=0;points=[[0,0.5],[1,0.5]];portConstraint=eastwest;" vertex="1" parent="yR7JWTEhL-IKzRIPbE6F-212">
          <mxGeometry y="150" width="180" height="30" as="geometry" />
        </mxCell>
        <mxCell id="yR7JWTEhL-IKzRIPbE6F-226" value="" style="shape=partialRectangle;connectable=0;fillColor=none;top=0;left=0;bottom=0;right=0;editable=1;overflow=hidden;" vertex="1" parent="yR7JWTEhL-IKzRIPbE6F-225">
          <mxGeometry width="30" height="30" as="geometry" />
        </mxCell>
        <mxCell id="yR7JWTEhL-IKzRIPbE6F-227" value="Model" style="shape=partialRectangle;connectable=0;fillColor=none;top=0;left=0;bottom=0;right=0;align=left;spacingLeft=6;overflow=hidden;" vertex="1" parent="yR7JWTEhL-IKzRIPbE6F-225">
          <mxGeometry x="30" width="150" height="30" as="geometry" />
        </mxCell>
        <mxCell id="yR7JWTEhL-IKzRIPbE6F-228" value="" style="shape=partialRectangle;collapsible=0;dropTarget=0;pointerEvents=0;fillColor=none;top=0;left=0;bottom=0;right=0;points=[[0,0.5],[1,0.5]];portConstraint=eastwest;" vertex="1" parent="yR7JWTEhL-IKzRIPbE6F-212">
          <mxGeometry y="180" width="180" height="30" as="geometry" />
        </mxCell>
        <mxCell id="yR7JWTEhL-IKzRIPbE6F-229" value="" style="shape=partialRectangle;connectable=0;fillColor=none;top=0;left=0;bottom=0;right=0;editable=1;overflow=hidden;" vertex="1" parent="yR7JWTEhL-IKzRIPbE6F-228">
          <mxGeometry width="30" height="30" as="geometry" />
        </mxCell>
        <mxCell id="yR7JWTEhL-IKzRIPbE6F-230" value="Year" style="shape=partialRectangle;connectable=0;fillColor=none;top=0;left=0;bottom=0;right=0;align=left;spacingLeft=6;overflow=hidden;" vertex="1" parent="yR7JWTEhL-IKzRIPbE6F-228">
          <mxGeometry x="30" width="150" height="30" as="geometry" />
        </mxCell>
        <mxCell id="yR7JWTEhL-IKzRIPbE6F-231" value="" style="shape=partialRectangle;collapsible=0;dropTarget=0;pointerEvents=0;fillColor=none;top=0;left=0;bottom=0;right=0;points=[[0,0.5],[1,0.5]];portConstraint=eastwest;" vertex="1" parent="yR7JWTEhL-IKzRIPbE6F-212">
          <mxGeometry y="210" width="180" height="30" as="geometry" />
        </mxCell>
        <mxCell id="yR7JWTEhL-IKzRIPbE6F-232" value="" style="shape=partialRectangle;connectable=0;fillColor=none;top=0;left=0;bottom=0;right=0;editable=1;overflow=hidden;" vertex="1" parent="yR7JWTEhL-IKzRIPbE6F-231">
          <mxGeometry width="30" height="30" as="geometry" />
        </mxCell>
        <mxCell id="yR7JWTEhL-IKzRIPbE6F-233" value="Colour" style="shape=partialRectangle;connectable=0;fillColor=none;top=0;left=0;bottom=0;right=0;align=left;spacingLeft=6;overflow=hidden;" vertex="1" parent="yR7JWTEhL-IKzRIPbE6F-231">
          <mxGeometry x="30" width="150" height="30" as="geometry" />
        </mxCell>
        <mxCell id="yR7JWTEhL-IKzRIPbE6F-234" value="" style="shape=partialRectangle;collapsible=0;dropTarget=0;pointerEvents=0;fillColor=none;top=0;left=0;bottom=0;right=0;points=[[0,0.5],[1,0.5]];portConstraint=eastwest;" vertex="1" parent="yR7JWTEhL-IKzRIPbE6F-212">
          <mxGeometry y="240" width="180" height="30" as="geometry" />
        </mxCell>
        <mxCell id="yR7JWTEhL-IKzRIPbE6F-235" value="" style="shape=partialRectangle;connectable=0;fillColor=none;top=0;left=0;bottom=0;right=0;editable=1;overflow=hidden;" vertex="1" parent="yR7JWTEhL-IKzRIPbE6F-234">
          <mxGeometry width="30" height="30" as="geometry" />
        </mxCell>
        <mxCell id="yR7JWTEhL-IKzRIPbE6F-236" value="License Plate" style="shape=partialRectangle;connectable=0;fillColor=none;top=0;left=0;bottom=0;right=0;align=left;spacingLeft=6;overflow=hidden;" vertex="1" parent="yR7JWTEhL-IKzRIPbE6F-234">
          <mxGeometry x="30" width="150" height="30" as="geometry" />
        </mxCell>
        <mxCell id="yR7JWTEhL-IKzRIPbE6F-237" value="CAR CLASS" style="shape=table;startSize=30;container=1;collapsible=1;childLayout=tableLayout;fixedRows=1;rowLines=0;fontStyle=1;align=center;resizeLast=1;" vertex="1" parent="1">
          <mxGeometry x="559" y="1200" width="180" height="100" as="geometry" />
        </mxCell>
        <mxCell id="yR7JWTEhL-IKzRIPbE6F-238" value="" style="shape=partialRectangle;collapsible=0;dropTarget=0;pointerEvents=0;fillColor=none;top=0;left=0;bottom=1;right=0;points=[[0,0.5],[1,0.5]];portConstraint=eastwest;" vertex="1" parent="yR7JWTEhL-IKzRIPbE6F-237">
          <mxGeometry y="30" width="180" height="30" as="geometry" />
        </mxCell>
        <mxCell id="yR7JWTEhL-IKzRIPbE6F-239" value="" style="shape=partialRectangle;connectable=0;fillColor=none;top=0;left=0;bottom=0;right=0;fontStyle=1;overflow=hidden;" vertex="1" parent="yR7JWTEhL-IKzRIPbE6F-238">
          <mxGeometry width="30" height="30" as="geometry" />
        </mxCell>
        <mxCell id="yR7JWTEhL-IKzRIPbE6F-240" value="Class Code" style="shape=partialRectangle;connectable=0;fillColor=none;top=0;left=0;bottom=0;right=0;align=left;spacingLeft=6;fontStyle=5;overflow=hidden;" vertex="1" parent="yR7JWTEhL-IKzRIPbE6F-238">
          <mxGeometry x="30" width="150" height="30" as="geometry" />
        </mxCell>
        <mxCell id="yR7JWTEhL-IKzRIPbE6F-241" value="" style="shape=partialRectangle;collapsible=0;dropTarget=0;pointerEvents=0;fillColor=none;top=0;left=0;bottom=0;right=0;points=[[0,0.5],[1,0.5]];portConstraint=eastwest;" vertex="1" parent="yR7JWTEhL-IKzRIPbE6F-237">
          <mxGeometry y="60" width="180" height="30" as="geometry" />
        </mxCell>
        <mxCell id="yR7JWTEhL-IKzRIPbE6F-242" value="" style="shape=partialRectangle;connectable=0;fillColor=none;top=0;left=0;bottom=0;right=0;editable=1;overflow=hidden;" vertex="1" parent="yR7JWTEhL-IKzRIPbE6F-241">
          <mxGeometry width="30" height="30" as="geometry" />
        </mxCell>
        <mxCell id="yR7JWTEhL-IKzRIPbE6F-243" value="Class Description" style="shape=partialRectangle;connectable=0;fillColor=none;top=0;left=0;bottom=0;right=0;align=left;spacingLeft=6;overflow=hidden;" vertex="1" parent="yR7JWTEhL-IKzRIPbE6F-241">
          <mxGeometry x="30" width="150" height="30" as="geometry" />
        </mxCell>
        <mxCell id="yR7JWTEhL-IKzRIPbE6F-250" value="PROMOTION RATE" style="shape=table;startSize=30;container=1;collapsible=1;childLayout=tableLayout;fixedRows=1;rowLines=0;fontStyle=1;align=center;resizeLast=1;" vertex="1" parent="1">
          <mxGeometry x="880" y="1000" width="180" height="130" as="geometry" />
        </mxCell>
        <mxCell id="yR7JWTEhL-IKzRIPbE6F-251" value="" style="shape=partialRectangle;collapsible=0;dropTarget=0;pointerEvents=0;fillColor=none;top=0;left=0;bottom=1;right=0;points=[[0,0.5],[1,0.5]];portConstraint=eastwest;" vertex="1" parent="yR7JWTEhL-IKzRIPbE6F-250">
          <mxGeometry y="30" width="180" height="30" as="geometry" />
        </mxCell>
        <mxCell id="yR7JWTEhL-IKzRIPbE6F-252" value="" style="shape=partialRectangle;connectable=0;fillColor=none;top=0;left=0;bottom=0;right=0;fontStyle=1;overflow=hidden;" vertex="1" parent="yR7JWTEhL-IKzRIPbE6F-251">
          <mxGeometry width="30" height="30" as="geometry" />
        </mxCell>
        <mxCell id="yR7JWTEhL-IKzRIPbE6F-253" value="Duration" style="shape=partialRectangle;connectable=0;fillColor=none;top=0;left=0;bottom=0;right=0;align=left;spacingLeft=6;fontStyle=5;overflow=hidden;" vertex="1" parent="yR7JWTEhL-IKzRIPbE6F-251">
          <mxGeometry x="30" width="150" height="30" as="geometry" />
        </mxCell>
        <mxCell id="yR7JWTEhL-IKzRIPbE6F-263" value="" style="shape=partialRectangle;collapsible=0;dropTarget=0;pointerEvents=0;fillColor=none;top=0;left=0;bottom=1;right=0;points=[[0,0.5],[1,0.5]];portConstraint=eastwest;" vertex="1" parent="yR7JWTEhL-IKzRIPbE6F-250">
          <mxGeometry y="60" width="180" height="30" as="geometry" />
        </mxCell>
        <mxCell id="yR7JWTEhL-IKzRIPbE6F-264" value="FK" style="shape=partialRectangle;connectable=0;fillColor=none;top=0;left=0;bottom=0;right=0;fontStyle=1;overflow=hidden;" vertex="1" parent="yR7JWTEhL-IKzRIPbE6F-263">
          <mxGeometry width="30" height="30" as="geometry" />
        </mxCell>
        <mxCell id="yR7JWTEhL-IKzRIPbE6F-265" value="Class Code" style="shape=partialRectangle;connectable=0;fillColor=none;top=0;left=0;bottom=0;right=0;align=left;spacingLeft=6;fontStyle=5;overflow=hidden;" vertex="1" parent="yR7JWTEhL-IKzRIPbE6F-263">
          <mxGeometry x="30" width="150" height="30" as="geometry" />
        </mxCell>
        <mxCell id="yR7JWTEhL-IKzRIPbE6F-254" value="" style="shape=partialRectangle;collapsible=0;dropTarget=0;pointerEvents=0;fillColor=none;top=0;left=0;bottom=0;right=0;points=[[0,0.5],[1,0.5]];portConstraint=eastwest;" vertex="1" parent="yR7JWTEhL-IKzRIPbE6F-250">
          <mxGeometry y="90" width="180" height="30" as="geometry" />
        </mxCell>
        <mxCell id="yR7JWTEhL-IKzRIPbE6F-255" value="" style="shape=partialRectangle;connectable=0;fillColor=none;top=0;left=0;bottom=0;right=0;editable=1;overflow=hidden;" vertex="1" parent="yR7JWTEhL-IKzRIPbE6F-254">
          <mxGeometry width="30" height="30" as="geometry" />
        </mxCell>
        <mxCell id="yR7JWTEhL-IKzRIPbE6F-256" value="Amount" style="shape=partialRectangle;connectable=0;fillColor=none;top=0;left=0;bottom=0;right=0;align=left;spacingLeft=6;overflow=hidden;" vertex="1" parent="yR7JWTEhL-IKzRIPbE6F-254">
          <mxGeometry x="30" width="150" height="30" as="geometry" />
        </mxCell>
        <mxCell id="yR7JWTEhL-IKzRIPbE6F-266" value="PROMOTION" style="shape=table;startSize=30;container=1;collapsible=1;childLayout=tableLayout;fixedRows=1;rowLines=0;fontStyle=1;align=center;resizeLast=1;" vertex="1" parent="1">
          <mxGeometry x="880" y="1240" width="180" height="190" as="geometry" />
        </mxCell>
        <mxCell id="yR7JWTEhL-IKzRIPbE6F-267" value="" style="shape=partialRectangle;collapsible=0;dropTarget=0;pointerEvents=0;fillColor=none;top=0;left=0;bottom=1;right=0;points=[[0,0.5],[1,0.5]];portConstraint=eastwest;" vertex="1" parent="yR7JWTEhL-IKzRIPbE6F-266">
          <mxGeometry y="30" width="180" height="30" as="geometry" />
        </mxCell>
        <mxCell id="yR7JWTEhL-IKzRIPbE6F-268" value="FK" style="shape=partialRectangle;connectable=0;fillColor=none;top=0;left=0;bottom=0;right=0;fontStyle=1;overflow=hidden;" vertex="1" parent="yR7JWTEhL-IKzRIPbE6F-267">
          <mxGeometry width="30" height="30" as="geometry" />
        </mxCell>
        <mxCell id="yR7JWTEhL-IKzRIPbE6F-269" value="Duration" style="shape=partialRectangle;connectable=0;fillColor=none;top=0;left=0;bottom=0;right=0;align=left;spacingLeft=6;fontStyle=5;overflow=hidden;" vertex="1" parent="yR7JWTEhL-IKzRIPbE6F-267">
          <mxGeometry x="30" width="150" height="30" as="geometry" />
        </mxCell>
        <mxCell id="yR7JWTEhL-IKzRIPbE6F-279" value="" style="shape=partialRectangle;collapsible=0;dropTarget=0;pointerEvents=0;fillColor=none;top=0;left=0;bottom=1;right=0;points=[[0,0.5],[1,0.5]];portConstraint=eastwest;" vertex="1" parent="yR7JWTEhL-IKzRIPbE6F-266">
          <mxGeometry y="60" width="180" height="30" as="geometry" />
        </mxCell>
        <mxCell id="yR7JWTEhL-IKzRIPbE6F-280" value="FK" style="shape=partialRectangle;connectable=0;fillColor=none;top=0;left=0;bottom=0;right=0;fontStyle=1;overflow=hidden;" vertex="1" parent="yR7JWTEhL-IKzRIPbE6F-279">
          <mxGeometry width="30" height="30" as="geometry" />
        </mxCell>
        <mxCell id="yR7JWTEhL-IKzRIPbE6F-281" value="Class Code" style="shape=partialRectangle;connectable=0;fillColor=none;top=0;left=0;bottom=0;right=0;align=left;spacingLeft=6;fontStyle=5;overflow=hidden;" vertex="1" parent="yR7JWTEhL-IKzRIPbE6F-279">
          <mxGeometry x="30" width="150" height="30" as="geometry" />
        </mxCell>
        <mxCell id="yR7JWTEhL-IKzRIPbE6F-270" value="" style="shape=partialRectangle;collapsible=0;dropTarget=0;pointerEvents=0;fillColor=none;top=0;left=0;bottom=0;right=0;points=[[0,0.5],[1,0.5]];portConstraint=eastwest;" vertex="1" parent="yR7JWTEhL-IKzRIPbE6F-266">
          <mxGeometry y="90" width="180" height="30" as="geometry" />
        </mxCell>
        <mxCell id="yR7JWTEhL-IKzRIPbE6F-271" value="" style="shape=partialRectangle;connectable=0;fillColor=none;top=0;left=0;bottom=0;right=0;editable=1;overflow=hidden;" vertex="1" parent="yR7JWTEhL-IKzRIPbE6F-270">
          <mxGeometry width="30" height="30" as="geometry" />
        </mxCell>
        <mxCell id="yR7JWTEhL-IKzRIPbE6F-272" value="From Date" style="shape=partialRectangle;connectable=0;fillColor=none;top=0;left=0;bottom=0;right=0;align=left;spacingLeft=6;overflow=hidden;" vertex="1" parent="yR7JWTEhL-IKzRIPbE6F-270">
          <mxGeometry x="30" width="150" height="30" as="geometry" />
        </mxCell>
        <mxCell id="yR7JWTEhL-IKzRIPbE6F-273" value="" style="shape=partialRectangle;collapsible=0;dropTarget=0;pointerEvents=0;fillColor=none;top=0;left=0;bottom=0;right=0;points=[[0,0.5],[1,0.5]];portConstraint=eastwest;" vertex="1" parent="yR7JWTEhL-IKzRIPbE6F-266">
          <mxGeometry y="120" width="180" height="30" as="geometry" />
        </mxCell>
        <mxCell id="yR7JWTEhL-IKzRIPbE6F-274" value="" style="shape=partialRectangle;connectable=0;fillColor=none;top=0;left=0;bottom=0;right=0;editable=1;overflow=hidden;" vertex="1" parent="yR7JWTEhL-IKzRIPbE6F-273">
          <mxGeometry width="30" height="30" as="geometry" />
        </mxCell>
        <mxCell id="yR7JWTEhL-IKzRIPbE6F-275" value="Percentage" style="shape=partialRectangle;connectable=0;fillColor=none;top=0;left=0;bottom=0;right=0;align=left;spacingLeft=6;overflow=hidden;" vertex="1" parent="yR7JWTEhL-IKzRIPbE6F-273">
          <mxGeometry x="30" width="150" height="30" as="geometry" />
        </mxCell>
        <mxCell id="yR7JWTEhL-IKzRIPbE6F-276" value="" style="shape=partialRectangle;collapsible=0;dropTarget=0;pointerEvents=0;fillColor=none;top=0;left=0;bottom=0;right=0;points=[[0,0.5],[1,0.5]];portConstraint=eastwest;" vertex="1" parent="yR7JWTEhL-IKzRIPbE6F-266">
          <mxGeometry y="150" width="180" height="30" as="geometry" />
        </mxCell>
        <mxCell id="yR7JWTEhL-IKzRIPbE6F-277" value="" style="shape=partialRectangle;connectable=0;fillColor=none;top=0;left=0;bottom=0;right=0;editable=1;overflow=hidden;" vertex="1" parent="yR7JWTEhL-IKzRIPbE6F-276">
          <mxGeometry width="30" height="30" as="geometry" />
        </mxCell>
        <mxCell id="yR7JWTEhL-IKzRIPbE6F-278" value="" style="shape=partialRectangle;connectable=0;fillColor=none;top=0;left=0;bottom=0;right=0;align=left;spacingLeft=6;overflow=hidden;" vertex="1" parent="yR7JWTEhL-IKzRIPbE6F-276">
          <mxGeometry x="30" width="150" height="30" as="geometry" />
        </mxCell>
        <mxCell id="yR7JWTEhL-IKzRIPbE6F-285" value="" style="edgeStyle=entityRelationEdgeStyle;fontSize=12;html=1;endArrow=ERzeroToOne;startArrow=ERmandOne;exitX=-0.022;exitY=0.154;exitDx=0;exitDy=0;exitPerimeter=0;entryX=1;entryY=0.5;entryDx=0;entryDy=0;" edge="1" parent="1" source="yR7JWTEhL-IKzRIPbE6F-237" target="yR7JWTEhL-IKzRIPbE6F-76">
          <mxGeometry width="100" height="100" relative="1" as="geometry">
            <mxPoint x="750" y="1311.2939453125" as="sourcePoint" />
            <mxPoint x="42" y="990" as="targetPoint" />
          </mxGeometry>
        </mxCell>
        <mxCell id="yR7JWTEhL-IKzRIPbE6F-294" value="" style="edgeStyle=entityRelationEdgeStyle;fontSize=12;html=1;endArrow=ERzeroToOne;startArrow=ERmandOne;exitX=1.013;exitY=0.164;exitDx=0;exitDy=0;exitPerimeter=0;fontStyle=1" edge="1" parent="1" source="yR7JWTEhL-IKzRIPbE6F-237" target="yR7JWTEhL-IKzRIPbE6F-250">
          <mxGeometry width="100" height="100" relative="1" as="geometry">
            <mxPoint x="740" y="1260" as="sourcePoint" />
            <mxPoint x="710" y="1030" as="targetPoint" />
          </mxGeometry>
        </mxCell>
        <mxCell id="yR7JWTEhL-IKzRIPbE6F-299" value="for" style="edgeLabel;html=1;align=center;verticalAlign=middle;resizable=0;points=[];fontSize=13;fontColor=none;fontStyle=1" vertex="1" connectable="0" parent="yR7JWTEhL-IKzRIPbE6F-294">
          <mxGeometry x="-0.1994" y="4" relative="1" as="geometry">
            <mxPoint x="-11" y="-17" as="offset" />
          </mxGeometry>
        </mxCell>
        <mxCell id="yR7JWTEhL-IKzRIPbE6F-295" value="" style="edgeStyle=entityRelationEdgeStyle;fontSize=12;html=1;endArrow=ERzeroToMany;startArrow=ERmandOne;noLabel=1;fontColor=none;entryX=0.667;entryY=0;entryDx=0;entryDy=0;entryPerimeter=0;" edge="1" parent="1" target="yR7JWTEhL-IKzRIPbE6F-266">
          <mxGeometry width="100" height="100" relative="1" as="geometry">
            <mxPoint x="1070" y="1100" as="sourcePoint" />
            <mxPoint x="1000" y="1260" as="targetPoint" />
          </mxGeometry>
        </mxCell>
        <mxCell id="yR7JWTEhL-IKzRIPbE6F-296" value="" style="edgeStyle=entityRelationEdgeStyle;fontSize=12;html=1;endArrow=ERzeroToOne;startArrow=ERmandOne;fontColor=none;entryX=0.997;entryY=-0.125;entryDx=0;entryDy=0;entryPerimeter=0;" edge="1" parent="1" target="yR7JWTEhL-IKzRIPbE6F-137">
          <mxGeometry width="100" height="100" relative="1" as="geometry">
            <mxPoint x="1070" y="1020" as="sourcePoint" />
            <mxPoint x="1050" y="-110" as="targetPoint" />
          </mxGeometry>
        </mxCell>
        <mxCell id="yR7JWTEhL-IKzRIPbE6F-297" value="to" style="text;html=1;align=center;verticalAlign=middle;resizable=0;points=[];autosize=1;strokeColor=none;fontColor=none;fontSize=13;fontStyle=1" vertex="1" parent="1">
          <mxGeometry x="1060" y="1160" width="30" height="20" as="geometry" />
        </mxCell>
        <mxCell id="yR7JWTEhL-IKzRIPbE6F-300" value="&lt;b&gt;for&lt;/b&gt;" style="text;html=1;align=center;verticalAlign=middle;resizable=0;points=[];autosize=1;strokeColor=none;fontSize=13;fontColor=none;" vertex="1" parent="1">
          <mxGeometry x="375" y="1070" width="30" height="20" as="geometry" />
        </mxCell>
        <mxCell id="yR7JWTEhL-IKzRIPbE6F-301" value="&lt;b&gt;for&lt;/b&gt;" style="text;html=1;align=center;verticalAlign=middle;resizable=0;points=[];autosize=1;strokeColor=none;fontSize=13;fontColor=none;" vertex="1" parent="1">
          <mxGeometry x="1060" y="530" width="30" height="20" as="geometry" />
        </mxCell>
        <mxCell id="yR7JWTEhL-IKzRIPbE6F-303" value="&lt;b&gt;for&lt;/b&gt;" style="text;html=1;align=center;verticalAlign=middle;resizable=0;points=[];autosize=1;strokeColor=none;fontSize=13;fontColor=none;" vertex="1" parent="1">
          <mxGeometry x="130" y="10" width="30" height="20" as="geometry" />
        </mxCell>
        <mxCell id="yR7JWTEhL-IKzRIPbE6F-304" value="" style="edgeStyle=entityRelationEdgeStyle;fontSize=12;html=1;endArrow=ERzeroToOne;startArrow=ERmandOne;fontColor=none;" edge="1" parent="1" target="yR7JWTEhL-IKzRIPbE6F-8">
          <mxGeometry width="100" height="100" relative="1" as="geometry">
            <mxPoint x="280" y="510" as="sourcePoint" />
            <mxPoint x="40" y="235" as="targetPoint" />
          </mxGeometry>
        </mxCell>
        <mxCell id="yR7JWTEhL-IKzRIPbE6F-309" value="" style="edgeStyle=entityRelationEdgeStyle;fontSize=12;html=1;endArrow=ERzeroToOne;startArrow=ERmandOne;fontColor=none;" edge="1" parent="1">
          <mxGeometry width="100" height="100" relative="1" as="geometry">
            <mxPoint x="77" y="720" as="sourcePoint" />
            <mxPoint x="77" y="900" as="targetPoint" />
          </mxGeometry>
        </mxCell>
        <mxCell id="yR7JWTEhL-IKzRIPbE6F-310" value="from" style="text;html=1;align=center;verticalAlign=middle;resizable=0;points=[];autosize=1;strokeColor=none;fontSize=13;fontColor=none;" vertex="1" parent="1">
          <mxGeometry x="60" y="770" width="40" height="20" as="geometry" />
        </mxCell>
        <mxCell id="yR7JWTEhL-IKzRIPbE6F-312" value="" style="edgeStyle=entityRelationEdgeStyle;fontSize=12;html=1;endArrow=ERzeroToOne;startArrow=ERmandOne;fontColor=none;entryX=0.98;entryY=1.08;entryDx=0;entryDy=0;entryPerimeter=0;" edge="1" parent="1" target="yR7JWTEhL-IKzRIPbE6F-52">
          <mxGeometry width="100" height="100" relative="1" as="geometry">
            <mxPoint x="270" y="915" as="sourcePoint" />
            <mxPoint x="271.9999999999999" y="680" as="targetPoint" />
          </mxGeometry>
        </mxCell>
        <mxCell id="yR7JWTEhL-IKzRIPbE6F-313" value="to" style="text;html=1;align=center;verticalAlign=middle;resizable=0;points=[];autosize=1;strokeColor=none;fontSize=13;fontColor=none;" vertex="1" parent="1">
          <mxGeometry x="275" y="830" width="30" height="20" as="geometry" />
        </mxCell>
        <mxCell id="yR7JWTEhL-IKzRIPbE6F-314" value="" style="edgeStyle=entityRelationEdgeStyle;fontSize=12;html=1;endArrow=ERzeroToOne;startArrow=ERmandOne;fontColor=none;" edge="1" parent="1" target="yR7JWTEhL-IKzRIPbE6F-158">
          <mxGeometry width="100" height="100" relative="1" as="geometry">
            <mxPoint x="990" y="170" as="sourcePoint" />
            <mxPoint x="1100" y="50" as="targetPoint" />
          </mxGeometry>
        </mxCell>
        <mxCell id="yR7JWTEhL-IKzRIPbE6F-315" value="has" style="text;html=1;align=center;verticalAlign=middle;resizable=0;points=[];autosize=1;strokeColor=none;fontSize=13;fontColor=none;" vertex="1" parent="1">
          <mxGeometry x="980" y="80" width="40" height="20" as="geometry" />
        </mxCell>
        <mxCell id="yR7JWTEhL-IKzRIPbE6F-317" value="" style="edgeStyle=entityRelationEdgeStyle;fontSize=12;html=1;endArrow=ERzeroToOne;startArrow=ERmandOne;fontColor=none;" edge="1" parent="1" target="yR7JWTEhL-IKzRIPbE6F-98">
          <mxGeometry width="100" height="100" relative="1" as="geometry">
            <mxPoint x="590" y="180" as="sourcePoint" />
            <mxPoint x="450" y="40" as="targetPoint" />
          </mxGeometry>
        </mxCell>
        <mxCell id="yR7JWTEhL-IKzRIPbE6F-318" value="has" style="text;html=1;align=center;verticalAlign=middle;resizable=0;points=[];autosize=1;strokeColor=none;fontSize=13;fontColor=none;" vertex="1" parent="1">
          <mxGeometry x="580" y="60" width="40" height="20" as="geometry" />
        </mxCell>
        <mxCell id="yR7JWTEhL-IKzRIPbE6F-321" value="" style="edgeStyle=entityRelationEdgeStyle;fontSize=12;html=1;endArrow=ERzeroToOne;startArrow=ERmandOne;fontColor=none;verticalAlign=middle;entryX=1;entryY=0.25;entryDx=0;entryDy=0;" edge="1" parent="1" target="yR7JWTEhL-IKzRIPbE6F-123">
          <mxGeometry width="100" height="100" relative="1" as="geometry">
            <mxPoint x="590" y="300" as="sourcePoint" />
            <mxPoint x="580" y="370" as="targetPoint" />
          </mxGeometry>
        </mxCell>
        <mxCell id="yR7JWTEhL-IKzRIPbE6F-322" value="is" style="text;html=1;align=center;verticalAlign=middle;resizable=0;points=[];autosize=1;strokeColor=none;fontSize=13;fontColor=none;" vertex="1" parent="1">
          <mxGeometry x="590" y="340" width="30" height="20" as="geometry" />
        </mxCell>
        <mxCell id="yR7JWTEhL-IKzRIPbE6F-323" value="for" style="text;html=1;align=center;verticalAlign=middle;resizable=0;points=[];autosize=1;strokeColor=none;fontSize=13;fontColor=none;rotation=0;" vertex="1" parent="1">
          <mxGeometry x="262" y="410" width="30" height="20" as="geometry" />
        </mxCell>
        <mxCell id="yR7JWTEhL-IKzRIPbE6F-302" value="" style="edgeStyle=entityRelationEdgeStyle;fontSize=12;html=1;endArrow=ERzeroToMany;startArrow=ERmandOne;fontColor=none;exitX=1;exitY=0.25;exitDx=0;exitDy=0;" edge="1" parent="1" source="yR7JWTEhL-IKzRIPbE6F-59">
          <mxGeometry width="100" height="100" relative="1" as="geometry">
            <mxPoint x="80" y="-90" as="sourcePoint" />
            <mxPoint x="80" y="180" as="targetPoint" />
          </mxGeometry>
        </mxCell>
        <mxCell id="yR7JWTEhL-IKzRIPbE6F-325" value="" style="edgeStyle=entityRelationEdgeStyle;fontSize=12;html=1;endArrow=ERzeroToOne;startArrow=ERmandOne;fontColor=none;verticalAlign=middle;entryX=0;entryY=0.955;entryDx=0;entryDy=0;entryPerimeter=0;exitX=1.047;exitY=0;exitDx=0;exitDy=0;exitPerimeter=0;" edge="1" parent="1" source="yR7JWTEhL-IKzRIPbE6F-18">
          <mxGeometry width="100" height="100" relative="1" as="geometry">
            <mxPoint x="281" y="550" as="sourcePoint" />
            <mxPoint x="401" y="308.64999999999964" as="targetPoint" />
          </mxGeometry>
        </mxCell>
        <mxCell id="yR7JWTEhL-IKzRIPbE6F-326" value="for" style="text;html=1;align=center;verticalAlign=middle;resizable=0;points=[];autosize=1;strokeColor=none;fontSize=13;fontColor=none;" vertex="1" parent="1">
          <mxGeometry x="355" y="400" width="30" height="20" as="geometry" />
        </mxCell>
        <mxCell id="yR7JWTEhL-IKzRIPbE6F-327" value="" style="edgeStyle=entityRelationEdgeStyle;fontSize=12;html=1;endArrow=ERzeroToMany;startArrow=ERmandOne;fontColor=none;verticalAlign=middle;entryX=0;entryY=0.5;entryDx=0;entryDy=0;exitX=1;exitY=0.5;exitDx=0;exitDy=0;" edge="1" parent="1" source="yR7JWTEhL-IKzRIPbE6F-49">
          <mxGeometry width="100" height="100" relative="1" as="geometry">
            <mxPoint x="274.9999999999999" y="695" as="sourcePoint" />
            <mxPoint x="562" y="845" as="targetPoint" />
          </mxGeometry>
        </mxCell>
        <mxCell id="yR7JWTEhL-IKzRIPbE6F-328" value="located at" style="text;html=1;align=center;verticalAlign=middle;resizable=0;points=[];autosize=1;strokeColor=none;fontSize=13;fontColor=none;rotation=0;" vertex="1" parent="1">
          <mxGeometry x="405" y="740" width="70" height="20" as="geometry" />
        </mxCell>
        <mxCell id="yR7JWTEhL-IKzRIPbE6F-329" value="" style="edgeStyle=entityRelationEdgeStyle;fontSize=12;html=1;endArrow=ERzeroToOne;startArrow=ERmandOne;fontColor=none;verticalAlign=middle;exitX=1.004;exitY=0.054;exitDx=0;exitDy=0;exitPerimeter=0;entryX=0;entryY=0.5;entryDx=0;entryDy=0;" edge="1" parent="1" target="yR7JWTEhL-IKzRIPbE6F-209">
          <mxGeometry width="100" height="100" relative="1" as="geometry">
            <mxPoint x="740.72" y="815.1199999999999" as="sourcePoint" />
            <mxPoint x="941" y="600" as="targetPoint" />
          </mxGeometry>
        </mxCell>
        <mxCell id="yR7JWTEhL-IKzRIPbE6F-330" value="for" style="edgeLabel;html=1;align=center;verticalAlign=middle;resizable=0;points=[];fontSize=13;fontColor=none;rotation=0;" vertex="1" connectable="0" parent="yR7JWTEhL-IKzRIPbE6F-329">
          <mxGeometry x="-0.0397" y="-5" relative="1" as="geometry">
            <mxPoint x="14" as="offset" />
          </mxGeometry>
        </mxCell>
        <mxCell id="yR7JWTEhL-IKzRIPbE6F-331" value="" style="edgeStyle=entityRelationEdgeStyle;fontSize=12;html=1;endArrow=ERzeroToOne;startArrow=ERmandOne;fontColor=none;verticalAlign=middle;exitX=1;exitY=0.5;exitDx=0;exitDy=0;" edge="1" parent="1" source="yR7JWTEhL-IKzRIPbE6F-21" target="yR7JWTEhL-IKzRIPbE6F-206">
          <mxGeometry width="100" height="100" relative="1" as="geometry">
            <mxPoint x="370" y="680" as="sourcePoint" />
            <mxPoint x="693.22" y="420.0000000000001" as="targetPoint" />
          </mxGeometry>
        </mxCell>
        <mxCell id="yR7JWTEhL-IKzRIPbE6F-332" value="to" style="text;html=1;align=center;verticalAlign=middle;resizable=0;points=[];autosize=1;strokeColor=none;fontSize=13;fontColor=none;" vertex="1" parent="1">
          <mxGeometry x="435" y="490" width="30" height="20" as="geometry" />
        </mxCell>
        <mxCell id="yR7JWTEhL-IKzRIPbE6F-333" value="" style="edgeStyle=entityRelationEdgeStyle;fontSize=12;html=1;endArrow=ERzeroToOne;startArrow=ERmandOne;fontColor=none;verticalAlign=middle;entryX=-0.01;entryY=0.237;entryDx=0;entryDy=0;entryPerimeter=0;exitX=1;exitY=0.5;exitDx=0;exitDy=0;" edge="1" parent="1" source="yR7JWTEhL-IKzRIPbE6F-18" target="yR7JWTEhL-IKzRIPbE6F-178">
          <mxGeometry width="100" height="100" relative="1" as="geometry">
            <mxPoint x="370" y="520" as="sourcePoint" />
            <mxPoint x="780" y="320" as="targetPoint" />
          </mxGeometry>
        </mxCell>
        <mxCell id="yR7JWTEhL-IKzRIPbE6F-334" value="from" style="text;html=1;align=center;verticalAlign=middle;resizable=0;points=[];autosize=1;strokeColor=none;fontSize=13;fontColor=none;" vertex="1" parent="1">
          <mxGeometry x="410" y="450" width="40" height="20" as="geometry" />
        </mxCell>
        <mxCell id="yR7JWTEhL-IKzRIPbE6F-335" value="" style="edgeStyle=entityRelationEdgeStyle;fontSize=12;html=1;endArrow=ERzeroToOne;startArrow=ERmandOne;fontColor=none;verticalAlign=middle;entryX=0;entryY=0.5;entryDx=0;entryDy=0;exitX=1;exitY=0.5;exitDx=0;exitDy=0;" edge="1" parent="1" source="yR7JWTEhL-IKzRIPbE6F-124" target="yR7JWTEhL-IKzRIPbE6F-166">
          <mxGeometry width="100" height="100" relative="1" as="geometry">
            <mxPoint x="620" y="560" as="sourcePoint" />
            <mxPoint x="720" y="460" as="targetPoint" />
          </mxGeometry>
        </mxCell>
        <mxCell id="yR7JWTEhL-IKzRIPbE6F-336" value="has" style="text;html=1;align=center;verticalAlign=middle;resizable=0;points=[];autosize=1;strokeColor=none;fontSize=13;fontColor=none;" vertex="1" parent="1">
          <mxGeometry x="660" y="490" width="40" height="20" as="geometry" />
        </mxCell>
      </root>
    </mxGraphModel>
  </diagram>
</mxfile>
